name Walk8.mot
datacolumns 19
datarows 27
range 1.76500000 1.79100000
endheader

                time	   L_ground_force_vx	   L_ground_force_vy	   L_ground_force_vz	   L_ground_force_px	   L_ground_force_py	   L_ground_force_pz	   R_ground_force_vx	   R_ground_force_vy	   R_ground_force_vz	   R_ground_force_px	   R_ground_force_py	   R_ground_force_pz	   L_ground_torque_x	   L_ground_torque_y	   L_ground_torque_z	   R_ground_torque_x	   R_ground_torque_y	   R_ground_torque_z	
          1.76500000	          0.00000000	          0.00000000	          0.00000000	          0.00000000	          0.00000000	          0.00000000	          0.00000000	          0.00000000	          0.00000000	          0.00000000	          0.00000000	          0.00000000	          0.00000000	          0.00000000	          0.00000000	          0.00000000	          0.00000000	          0.00000000	
          1.76600000	          0.00000000	          0.00000000	          0.00000000	          0.00000000	          0.00000000	          0.00000000	          0.00000000	          0.00000000	          0.00000000	          0.00000000	          0.00000000	          0.00000000	          0.00000000	          0.00000000	          0.00000000	          0.00000000	          0.00000000	          0.00000000	
          1.76700000	          0.00000000	          0.00000000	          0.00000000	          0.00000000	          0.00000000	          0.00000000	          0.00000000	          0.00000000	          0.00000000	          0.00000000	          0.00000000	          0.00000000	          0.00000000	          0.00000000	          0.00000000	          0.00000000	          0.00000000	          0.00000000	
          1.76800000	          0.00000000	          0.00000000	          0.00000000	          0.00000000	          0.00000000	          0.00000000	          0.00000000	          0.00000000	          0.00000000	          0.00000000	          0.00000000	          0.00000000	          0.00000000	          0.00000000	          0.00000000	          0.00000000	          0.00000000	          0.00000000	
          1.76900000	          0.00000000	          0.00000000	          0.00000000	          0.00000000	          0.00000000	          0.00000000	          0.00000000	          0.00000000	          0.00000000	          0.00000000	          0.00000000	          0.00000000	          0.00000000	          0.00000000	          0.00000000	          0.00000000	          0.00000000	          0.00000000	
          1.77000000	          0.00000000	          0.00000000	          0.00000000	          0.00000000	          0.00000000	          0.00000000	          0.00000000	          0.00000000	          0.00000000	          0.00000000	          0.00000000	          0.00000000	          0.00000000	          0.00000000	          0.00000000	          0.00000000	          0.00000000	          0.00000000	
          1.77100000	          0.00000000	          0.00000000	          0.00000000	          0.00000000	          0.00000000	          0.00000000	          0.00000000	          0.00000000	          0.00000000	          0.00000000	          0.00000000	          0.00000000	          0.00000000	          0.00000000	          0.00000000	          0.00000000	          0.00000000	          0.00000000	
          1.77200000	          0.00000000	          0.00000000	          0.00000000	          0.00000000	          0.00000000	          0.00000000	          0.00000000	          0.00000000	          0.00000000	          0.00000000	          0.00000000	          0.00000000	          0.00000000	          0.00000000	          0.00000000	          0.00000000	          0.00000000	          0.00000000	
          1.77300000	          0.00000000	          0.00000000	          0.00000000	          0.00000000	          0.00000000	          0.00000000	         -8.91321475	         13.78262503	         -3.49695390	         -0.36269546	          0.00000000	         -0.00976828	          0.00000000	          0.00000000	          0.00000000	          0.00000000	          0.03325895	          0.00000000	
          1.77400000	          0.00000000	          0.00000000	          0.00000000	          0.00000000	          0.00000000	          0.00000000	        -13.48824998	         20.56681016	         -5.22572835	         -0.36120164	          0.00000000	         -0.00947922	          0.00000000	          0.00000000	          0.00000000	          0.00000000	          0.03237145	          0.00000000	
          1.77500000	          0.00000000	          0.00000000	          0.00000000	          0.00000000	          0.00000000	          0.00000000	        -18.47094191	         27.75298566	         -7.02279539	         -0.36015671	          0.00000000	         -0.00895263	          0.00000000	          0.00000000	          0.00000000	          0.00000000	          0.04039346	          0.00000000	
          1.77600000	          0.00000000	          0.00000000	          0.00000000	          0.00000000	          0.00000000	          0.00000000	        -23.87373383	         35.46767154	         -8.81855427	         -0.35966493	          0.00000000	         -0.00839837	          0.00000000	          0.00000000	          0.00000000	          0.00000000	          0.07386568	          0.00000000	
          1.77700000	          0.00000000	          0.00000000	          0.00000000	          0.00000000	          0.00000000	          0.00000000	        -29.77949356	         44.24692509	        -10.56643162	         -0.35961948	          0.00000000	         -0.00809710	          0.00000000	          0.00000000	          0.00000000	          0.00000000	          0.13452860	          0.00000000	
          1.77800000	          0.00000000	          0.00000000	          0.00000000	          0.00000000	          0.00000000	          0.00000000	        -36.12847288	         54.72914430	        -12.19804563	         -0.35975544	          0.00000000	         -0.00813588	          0.00000000	          0.00000000	          0.00000000	          0.00000000	          0.20571330	          0.00000000	
          1.77900000	          0.00000000	          0.00000000	          0.00000000	          0.00000000	          0.00000000	          0.00000000	        -42.64130680	         67.39336418	        -13.62865601	         -0.35990202	          0.00000000	         -0.00837486	          0.00000000	          0.00000000	          0.00000000	          0.00000000	          0.26901809	          0.00000000	
          1.78000000	          0.00000000	          0.00000000	          0.00000000	          0.00000000	          0.00000000	          0.00000000	        -48.87271284	         82.41736956	        -14.78814934	         -0.36006787	          0.00000000	         -0.00862195	          0.00000000	          0.00000000	          0.00000000	          0.00000000	          0.32021309	          0.00000000	
          1.78100000	          0.00000000	          0.00000000	          0.00000000	          0.00000000	          0.00000000	          0.00000000	        -54.34522054	         99.72918760	        -15.65299411	         -0.36033249	          0.00000000	         -0.00877623	          0.00000000	          0.00000000	          0.00000000	          0.00000000	          0.36813482	          0.00000000	
          1.78200000	          0.00000000	          0.00000000	          0.00000000	          0.00000000	          0.00000000	          0.00000000	        -58.66918377	        119.16551918	        -16.25731690	         -0.36070095	          0.00000000	         -0.00883043	          0.00000000	          0.00000000	          0.00000000	          0.00000000	          0.42164793	          0.00000000	
          1.78300000	          0.00000000	          0.00000000	          0.00000000	          0.00000000	          0.00000000	          0.00000000	        -61.58805541	        140.56850897	        -16.68223646	         -0.36106629	          0.00000000	         -0.00879260	          0.00000000	          0.00000000	          0.00000000	          0.00000000	          0.48318112	          0.00000000	
          1.78400000	          0.00000000	          0.00000000	          0.00000000	          0.00000000	          0.00000000	          0.00000000	        -62.97194315	        163.76094529	        -17.04439158	         -0.36132625	          0.00000000	         -0.00866331	          0.00000000	          0.00000000	          0.00000000	          0.00000000	          0.55186892	          0.00000000	
          1.78500000	          0.00000000	          0.00000000	          0.00000000	          0.00000000	          0.00000000	          0.00000000	        -62.80798068	        188.45780444	        -17.48561741	         -0.36148171	          0.00000000	         -0.00847992	          0.00000000	          0.00000000	          0.00000000	          0.00000000	          0.62414031	          0.00000000	
          1.78600000	          0.00000000	          0.00000000	          0.00000000	          0.00000000	          0.00000000	          0.00000000	        -61.19041753	        214.20809577	        -18.15218312	         -0.36158604	          0.00000000	         -0.00832459	          0.00000000	          0.00000000	          0.00000000	          0.00000000	          0.69285327	          0.00000000	
          1.78700000	          0.00000000	          0.00000000	          0.00000000	          0.00000000	          0.00000000	          0.00000000	        -58.29860988	        240.41107467	        -19.17180312	         -0.36166060	          0.00000000	         -0.00824772	          0.00000000	          0.00000000	          0.00000000	          0.00000000	          0.75158353	          0.00000000	
          1.78800000	          0.00000000	          0.00000000	          0.00000000	          0.00000000	          0.00000000	          0.00000000	        -54.37452544	        266.38209847	        -20.63918867	         -0.36169629	          0.00000000	         -0.00820201	          0.00000000	          0.00000000	          0.00000000	          0.00000000	          0.79718599	          0.00000000	
          1.78900000	          0.00000000	          0.00000000	          0.00000000	          0.00000000	          0.00000000	          0.00000000	        -49.70094183	        291.42621818	        -22.60503613	         -0.36169751	          0.00000000	         -0.00809440	          0.00000000	          0.00000000	          0.00000000	          0.00000000	          0.82673248	          0.00000000	
          1.79000000	          0.00000000	          0.00000000	          0.00000000	          0.00000000	          0.00000000	          0.00000000	        -44.57222827	        314.89519886	        -25.07021106	         -0.36168512	          0.00000000	         -0.00789289	          0.00000000	          0.00000000	          0.00000000	          0.00000000	          0.83767824	          0.00000000	
          1.79100000	          0.00000000	          0.00000000	          0.00000000	          0.00000000	          0.00000000	          0.00000000	        -39.26844424	        336.24789982	        -27.98881033	         -0.36167168	          0.00000000	         -0.00765365	          0.00000000	          0.00000000	          0.00000000	          0.00000000	          0.83214841	          0.00000000	
